<svg width="24" height="24" viewBox="0 0 24 24" fill="none" xmlns="http://www.w3.org/2000/svg">
<path d="M14.5 16.5C12.6435 16.5 10.863 15.7625 9.55025 14.4497C8.2375 13.137 7.5 11.3565 7.5 9.5C7.5 7.64348 8.2375 5.86301 9.55025 4.55025C10.863 3.2375 12.6435 2.5 14.5 2.5C16.3565 2.5 18.137 3.2375 19.4497 4.55025C20.7625 5.86301 21.5 7.64348 21.5 9.5C21.5 11.3565 20.7625 13.137 19.4497 14.4497C18.137 15.7625 16.3565 16.5 14.5 16.5Z" stroke="#0062DB" stroke-width="2" stroke-linecap="round" stroke-linejoin="round"/>
<path d="M3 21L9 15" stroke="#0062DB" stroke-width="2" stroke-linecap="round" stroke-linejoin="round"/>
<path d="M12.8572 7.24378C13.5222 7.74299 14.2374 8.75518 14.5 9.29838C14.7626 8.75522 15.4778 7.74298 16.1428 7.24378C16.6226 6.88357 17.4 6.60486 17.4 7.49173C17.4 7.66885 17.2985 8.97963 17.2389 9.19243C17.0319 9.93227 16.2775 10.121 15.6064 10.0068C16.7794 10.2064 17.0778 10.8677 16.4334 11.529C15.2095 12.7849 14.6743 11.2138 14.5371 10.8113C14.5119 10.7375 14.5002 10.703 14.5 10.7323C14.4998 10.703 14.4881 10.7375 14.4629 10.8113C14.3258 11.2138 13.7906 12.7849 12.5666 11.529C11.9222 10.8677 12.2206 10.2064 13.3936 10.0068C12.7225 10.121 11.9681 9.93226 11.7611 9.19243C11.7015 8.97961 11.6 7.66883 11.6 7.49173C11.6 6.60486 12.3774 6.88357 12.8572 7.24378H12.8572Z" fill="#0062DB"/>
</svg>
